# xmcd CD database file
#
# Track frame offsets:
#	150
#	21533
#	43613
#	62386
#	96027
#	118965
#	132375
#	152289
#	177324
#	199324
#	215939
#	232810
#	255037
#	268885
#	287076
#	302879
#
# Disc length: 4298 seconds
#
# Revision: 3
# Processed by: cddbd v1.5.2PL0 Copyright (c) Steve Scherf et al.
# Submitted via: CDex 2.06
#
DISCID=e810c810
DTITLE=EAGLES - EAGLES - The Complete Greatest Hits [CD2))
DYEAR=2003
DGENRE=Rock
TTITLE0=Life In The Fast Lane
TTITLE1=Wasted Time
TTITLE2=Victim Of Love
TTITLE3=The Last Resort
TTITLE4=New Kid In Town
TTITLE5=Please Come Home For Christmas
TTITLE6=Heartache Tonight
TTITLE7=The Sad Cafe
TTITLE8=I Can't Tell You Why
TTITLE9=The Long Run
TTITLE10=In The City
TTITLE11=Those Shoes
TTITLE12=Seven Bridges Road (Live)
TTITLE13=Love Will Keep Us Alive
TTITLE14=Get Over It
TTITLE15=Hole In The World
EXTD=YEAR: 2003
EXTT0=
EXTT1=
EXTT2=
EXTT3=
EXTT4=
EXTT5=
EXTT6=
EXTT7=
EXTT8=
EXTT9=
EXTT10=
EXTT11=
EXTT12=
EXTT13=
EXTT14=
EXTT15=
PLAYORDER=
